<svg width="300" height="300" viewBox="0 0 300 300" fill="none" xmlns="http://www.w3.org/2000/svg">
<rect width="300" height="300" rx="30" fill="#0F1A3A"/>
<path d="M116.954 155.233C116.954 138.404 110.773 129.989 98.4108 129.989C95.7284 129.989 93.046 130.339 90.3636 131.04C87.7978 131.742 85.6986 132.618 84.0658 133.67V181.179C85.3487 181.413 86.9814 181.647 88.9641 181.881C90.9467 181.998 93.1043 182.056 95.4368 182.056C102.551 182.056 107.916 179.602 111.531 174.693C115.147 169.784 116.954 163.298 116.954 155.233ZM143.545 155.935C143.545 163.298 142.437 169.96 140.221 175.92C138.122 181.881 135.031 186.965 130.949 191.172C126.867 195.38 121.852 198.652 115.905 200.99C109.957 203.21 103.192 204.321 95.6117 204.321C92.4629 204.321 89.139 204.145 85.6403 203.795C82.2581 203.561 78.876 203.21 75.4938 202.743C72.2283 202.275 69.0794 201.749 66.0472 201.165C63.0149 200.464 60.3325 199.762 58 199.061V70.2075L84.0658 66V111.932C86.9814 110.646 90.0137 109.652 93.1626 108.951C96.3115 108.25 99.6936 107.899 103.309 107.899C109.84 107.899 115.613 109.068 120.628 111.406C125.643 113.626 129.841 116.84 133.223 121.048C136.606 125.255 139.171 130.339 140.921 136.3C142.67 142.143 143.545 148.688 143.545 155.935Z" fill="white"/>
<path d="M185.795 152.954C185.795 167.564 191.685 174.868 203.464 174.868C206.146 174.868 208.654 174.518 210.986 173.816C213.319 173.115 215.301 172.297 216.934 171.362V129.638C215.651 129.404 214.135 129.229 212.386 129.112C210.636 128.878 208.595 128.761 206.263 128.761C199.382 128.761 194.251 131.04 190.868 135.599C187.486 140.157 185.795 145.942 185.795 152.954ZM243 190.471C243 205.548 239.151 216.709 231.454 223.955C223.873 231.318 212.094 235 196.117 235C190.518 235 184.92 234.474 179.322 233.422C173.724 232.487 168.535 231.202 163.753 229.565L168.301 207.651C172.383 209.288 176.64 210.573 181.072 211.508C185.62 212.443 190.752 212.911 196.466 212.911C203.93 212.911 209.179 211.275 212.211 208.002C215.36 204.73 216.934 200.522 216.934 195.38V192.049C214.135 193.334 211.22 194.328 208.187 195.029C205.272 195.613 202.064 195.906 198.566 195.906C185.853 195.906 176.115 192.166 169.351 184.686C162.587 177.089 159.205 166.512 159.205 152.954C159.205 146.176 160.254 140.04 162.353 134.547C164.453 128.937 167.485 124.145 171.45 120.171C175.532 116.197 180.489 113.159 186.32 111.055C192.151 108.834 198.741 107.724 206.088 107.724C209.237 107.724 212.444 107.899 215.71 108.25C219.092 108.484 222.416 108.834 225.681 109.302C228.947 109.769 232.037 110.354 234.953 111.055C237.985 111.639 240.667 112.282 243 112.983V190.471Z" fill="white"/>
</svg>
