<svg width="7" height="12" viewBox="0 0 7 12" fill="none" xmlns="http://www.w3.org/2000/svg">
<path d="M5.77985 5.7696C6.19985 5.2848 6.46154 4.6272 6.46154 3.9C6.46154 2.514 5.516 1.3812 4.30769 1.23V0.6C4.30769 0.2688 4.06646 0 3.76923 0C3.472 0 3.23077 0.2688 3.23077 0.6V1.2H2.15385V0.6C2.15385 0.2688 1.91262 0 1.61538 0C1.31815 0 1.07692 0.2688 1.07692 0.6V1.2H0.538462C0.241231 1.2 0 1.4688 0 1.8V10.2C0 10.5312 0.241231 10.8 0.538462 10.8H1.07692V11.4C1.07692 11.7312 1.31815 12 1.61538 12C1.91262 12 2.15385 11.7312 2.15385 11.4V10.8H3.23077V11.4C3.23077 11.7312 3.472 12 3.76923 12C4.06646 12 4.30769 11.7312 4.30769 11.4V10.8H4.57692C5.91338 10.8 7 9.5892 7 8.1C7 7.1004 6.50462 6.2376 5.77985 5.7696ZM1.07692 2.4H4.03846C4.78046 2.4 5.38462 3.0732 5.38462 3.9C5.38462 4.7268 4.78046 5.4 4.03846 5.4H1.07692V2.4ZM4.57692 9.6H1.07692V6.6H4.03846H4.57692C5.31892 6.6 5.92308 7.2732 5.92308 8.1C5.92308 8.9268 5.31892 9.6 4.57692 9.6Z" fill="black"/>
</svg>
