<svg width="195" height="40" viewBox="0 0 195 40" fill="none" xmlns="http://www.w3.org/2000/svg">
<path d="M14.95 25.05C14.95 22.65 14.6333 20.95 14 19.95C13.4 18.95 12.35 18.45 10.85 18.45C10.3833 18.45 9.9 18.4833 9.4 18.55C8.9 18.5833 8.41667 18.6333 7.95 18.7V39H0.5V13.6C1.13333 13.4333 1.86667 13.2667 2.7 13.1C3.56667 12.9 4.46667 12.7333 5.4 12.6C6.36667 12.4333 7.35 12.3167 8.35 12.25C9.35 12.15 10.3333 12.1 11.3 12.1C13.2 12.1 14.7333 12.35 15.9 12.85C17.1 13.3167 18.0833 13.8833 18.85 14.55C19.9167 13.7833 21.1333 13.1833 22.5 12.75C23.9 12.3167 25.1833 12.1 26.35 12.1C28.45 12.1 30.1667 12.4 31.5 13C32.8667 13.5667 33.95 14.3833 34.75 15.45C35.55 16.5167 36.1 17.7833 36.4 19.25C36.7 20.7167 36.85 22.35 36.85 24.15V39H29.4V25.05C29.4 22.65 29.0833 20.95 28.45 19.95C27.85 18.95 26.8 18.45 25.3 18.45C24.9 18.45 24.3333 18.55 23.6 18.75C22.9 18.95 22.3167 19.2 21.85 19.5C22.0833 20.2667 22.2333 21.0833 22.3 21.95C22.3667 22.7833 22.4 23.6833 22.4 24.65V39H14.95V25.05ZM55.9152 33.8C56.6486 33.8 57.3486 33.7833 58.0152 33.75C58.6819 33.7167 59.2152 33.6667 59.6152 33.6V27.95C59.3152 27.8833 58.8652 27.8167 58.2652 27.75C57.6652 27.6833 57.1152 27.65 56.6152 27.65C55.9152 27.65 55.2486 27.7 54.6152 27.8C54.0152 27.8667 53.4819 28.0167 53.0152 28.25C52.5486 28.4833 52.1819 28.8 51.9152 29.2C51.6486 29.6 51.5152 30.1 51.5152 30.7C51.5152 31.8667 51.8986 32.6833 52.6652 33.15C53.4652 33.5833 54.5486 33.8 55.9152 33.8ZM55.3152 12C57.5152 12 59.3486 12.25 60.8152 12.75C62.2819 13.25 63.4486 13.9667 64.3152 14.9C65.2152 15.8333 65.8486 16.9667 66.2152 18.3C66.5819 19.6333 66.7652 21.1167 66.7652 22.75V38.25C65.6986 38.4833 64.2152 38.75 62.3152 39.05C60.4152 39.3833 58.1152 39.55 55.4152 39.55C53.7152 39.55 52.1652 39.4 50.7652 39.1C49.3986 38.8 48.2152 38.3167 47.2152 37.65C46.2152 36.95 45.4486 36.05 44.9152 34.95C44.3819 33.85 44.1152 32.5 44.1152 30.9C44.1152 29.3667 44.4152 28.0667 45.0152 27C45.6486 25.9333 46.4819 25.0833 47.5152 24.45C48.5486 23.8167 49.7319 23.3667 51.0652 23.1C52.3986 22.8 53.7819 22.65 55.2152 22.65C56.1819 22.65 57.0319 22.7 57.7652 22.8C58.5319 22.8667 59.1486 22.9667 59.6152 23.1V22.4C59.6152 21.1333 59.2319 20.1167 58.4652 19.35C57.6986 18.5833 56.3652 18.2 54.4652 18.2C53.1986 18.2 51.9486 18.3 50.7152 18.5C49.4819 18.6667 48.4152 18.9167 47.5152 19.25L46.5652 13.25C46.9986 13.1167 47.5319 12.9833 48.1652 12.85C48.8319 12.6833 49.5486 12.55 50.3152 12.45C51.0819 12.3167 51.8819 12.2167 52.7152 12.15C53.5819 12.05 54.4486 12 55.3152 12ZM91.602 19.3C90.9353 19.1333 90.152 18.9667 89.252 18.8C88.352 18.6 87.3853 18.5 86.352 18.5C85.8853 18.5 85.3186 18.55 84.652 18.65C84.0186 18.7167 83.5353 18.8 83.202 18.9V39H75.752V14.1C77.0853 13.6333 78.652 13.2 80.452 12.8C82.2853 12.3667 84.3186 12.15 86.552 12.15C86.952 12.15 87.4353 12.1833 88.002 12.25C88.5686 12.2833 89.1353 12.35 89.702 12.45C90.2686 12.5167 90.8353 12.6167 91.402 12.75C91.9686 12.85 92.452 12.9833 92.852 13.15L91.602 19.3ZM106.646 33.65C108.012 33.65 108.979 33.5167 109.546 33.25C110.112 32.9833 110.396 32.4667 110.396 31.7C110.396 31.1 110.029 30.5833 109.296 30.15C108.562 29.6833 107.446 29.1667 105.946 28.6C104.779 28.1667 103.712 27.7167 102.746 27.25C101.812 26.7833 101.012 26.2333 100.346 25.6C99.679 24.9333 99.1624 24.15 98.7957 23.25C98.429 22.35 98.2457 21.2667 98.2457 20C98.2457 17.5333 99.1624 15.5833 100.996 14.15C102.829 12.7167 105.346 12 108.546 12C110.146 12 111.679 12.15 113.146 12.45C114.612 12.7167 115.779 13.0167 116.646 13.35L115.346 19.15C114.479 18.85 113.529 18.5833 112.496 18.35C111.496 18.1167 110.362 18 109.096 18C106.762 18 105.596 18.65 105.596 19.95C105.596 20.25 105.646 20.5167 105.746 20.75C105.846 20.9833 106.046 21.2167 106.346 21.45C106.646 21.65 107.046 21.8833 107.546 22.15C108.079 22.3833 108.746 22.65 109.546 22.95C111.179 23.55 112.529 24.15 113.596 24.75C114.662 25.3167 115.496 25.95 116.096 26.65C116.729 27.3167 117.162 28.0667 117.396 28.9C117.662 29.7333 117.796 30.7 117.796 31.8C117.796 34.4 116.812 36.3667 114.846 37.7C112.912 39.0333 110.162 39.7 106.596 39.7C104.262 39.7 102.312 39.5 100.746 39.1C99.2124 38.7 98.1457 38.3667 97.5457 38.1L98.7957 32.05C100.062 32.55 101.362 32.95 102.696 33.25C104.029 33.5167 105.346 33.65 106.646 33.65ZM133.063 39H125.613V12.7H133.063V39ZM133.763 5.1C133.763 6.46667 133.313 7.55 132.413 8.35C131.547 9.11666 130.513 9.5 129.313 9.5C128.113 9.5 127.063 9.11666 126.163 8.35C125.297 7.55 124.863 6.46667 124.863 5.1C124.863 3.73333 125.297 2.66666 126.163 1.9C127.063 1.1 128.113 0.699998 129.313 0.699998C130.513 0.699998 131.547 1.1 132.413 1.9C133.313 2.66666 133.763 3.73333 133.763 5.1ZM152.366 33.8C153.1 33.8 153.8 33.7833 154.466 33.75C155.133 33.7167 155.666 33.6667 156.066 33.6V27.95C155.766 27.8833 155.316 27.8167 154.716 27.75C154.116 27.6833 153.566 27.65 153.066 27.65C152.366 27.65 151.7 27.7 151.066 27.8C150.466 27.8667 149.933 28.0167 149.466 28.25C149 28.4833 148.633 28.8 148.366 29.2C148.1 29.6 147.966 30.1 147.966 30.7C147.966 31.8667 148.35 32.6833 149.116 33.15C149.916 33.5833 151 33.8 152.366 33.8ZM151.766 12C153.966 12 155.8 12.25 157.266 12.75C158.733 13.25 159.9 13.9667 160.766 14.9C161.666 15.8333 162.3 16.9667 162.666 18.3C163.033 19.6333 163.216 21.1167 163.216 22.75V38.25C162.15 38.4833 160.666 38.75 158.766 39.05C156.866 39.3833 154.566 39.55 151.866 39.55C150.166 39.55 148.616 39.4 147.216 39.1C145.85 38.8 144.666 38.3167 143.666 37.65C142.666 36.95 141.9 36.05 141.366 34.95C140.833 33.85 140.566 32.5 140.566 30.9C140.566 29.3667 140.866 28.0667 141.466 27C142.1 25.9333 142.933 25.0833 143.966 24.45C145 23.8167 146.183 23.3667 147.516 23.1C148.85 22.8 150.233 22.65 151.666 22.65C152.633 22.65 153.483 22.7 154.216 22.8C154.983 22.8667 155.6 22.9667 156.066 23.1V22.4C156.066 21.1333 155.683 20.1167 154.916 19.35C154.15 18.5833 152.816 18.2 150.916 18.2C149.65 18.2 148.4 18.3 147.166 18.5C145.933 18.6667 144.866 18.9167 143.966 19.25L143.016 13.25C143.45 13.1167 143.983 12.9833 144.616 12.85C145.283 12.6833 146 12.55 146.766 12.45C147.533 12.3167 148.333 12.2167 149.166 12.15C150.033 12.05 150.9 12 151.766 12ZM172.203 13.6C173.47 13.2333 175.103 12.9 177.103 12.6C179.103 12.2667 181.203 12.1 183.403 12.1C185.636 12.1 187.486 12.4 188.953 13C190.453 13.5667 191.636 14.3833 192.503 15.45C193.37 16.5167 193.986 17.7833 194.353 19.25C194.72 20.7167 194.903 22.35 194.903 24.15V39H187.453V25.05C187.453 22.65 187.136 20.95 186.503 19.95C185.87 18.95 184.686 18.45 182.953 18.45C182.42 18.45 181.853 18.4833 181.253 18.55C180.653 18.5833 180.12 18.6333 179.653 18.7V39H172.203V13.6Z" fill="#0F1A3A"/>
</svg>
