<svg width="26" height="26" viewBox="0 0 26 26" fill="none" xmlns="http://www.w3.org/2000/svg">
<path d="M19.3157 25H6.68431C3.54495 25 1 22.455 1 19.3157V6.68431C1 3.54495 3.54495 1 6.68431 1H19.3157C22.455 1 25 3.54495 25 6.68431V19.3157C25 22.455 22.455 25 19.3157 25Z" stroke="#0F1A3A"/>
<path d="M6.06069 20.2418C5.46842 19.6725 4.49518 18.1678 5.34037 16.7039C6.18557 15.24 8.57386 13.0848 9.66236 12.1901H10.0946V10.4822C11.3431 10.1366 14.2532 9.65266 15.9052 10.4822" stroke="#0F1A3A"/>
<path d="M15.5232 10.3171L15.9055 10.4827V12.1906H16.3377C17.4262 13.0853 19.8145 15.2405 20.6597 16.7044C21.5049 18.1684 20.5316 19.673 19.9394 20.2423H6.06435L6.01049 20.1962" stroke="#0F1A3A"/>
<path d="M10.8668 13.8176C11.6511 13.9536 13.6023 14.1439 15.1332 13.8176" stroke="#0F1A3A" stroke-width="0.3"/>
<path d="M8.49377 13.1398V6.28188C8.49377 5.64133 9.01304 5.12207 9.65358 5.12207H16.2956C16.9361 5.12207 17.4554 5.64133 17.4554 6.28188V13.1398" stroke="#0F1A3A"/>
</svg>
