<svg width="25" height="24" viewBox="0 0 25 24" fill="none" xmlns="http://www.w3.org/2000/svg">
<path d="M2.78302 21L21.533 3" stroke="#616161" stroke-width="1.5" stroke-linecap="round" stroke-linejoin="round"/>
<path d="M8.96399 19.0509C9.9468 19.3561 10.9709 19.5076 12 19.4999C16.1 19.5689 20.258 16.6869 22.824 13.8629C23.3938 13.2303 23.3938 12.2695 22.824 11.6369C21.8944 10.6171 20.8645 9.69344 19.75 8.87988" stroke="#616161" stroke-width="1.5" stroke-linecap="round" stroke-linejoin="round"/>
<path d="M14.413 6.28219C13.624 6.08584 12.8131 5.99108 12 6.00019C7.96901 5.93319 3.80001 8.75219 1.17901 11.6352C0.609194 12.2678 0.609194 13.2286 1.17901 13.8612C1.97593 14.7336 2.84575 15.5365 3.77901 16.2612" stroke="#616161" stroke-width="1.5" stroke-linecap="round" stroke-linejoin="round"/>
<path d="M8.25 12.75C8.24973 11.7554 8.64474 10.8014 9.34806 10.0981C10.0514 9.39474 11.0054 8.99973 12 9" stroke="#616161" stroke-width="1.5" stroke-linecap="round" stroke-linejoin="round"/>
<path d="M15.75 12.749V12.749C15.7503 13.7438 15.3553 14.6978 14.652 15.4013C13.9487 16.1048 12.9947 16.5 12 16.5" stroke="#616161" stroke-width="1.5" stroke-linecap="round" stroke-linejoin="round"/>
</svg>
