<svg width="24" height="25" viewBox="0 0 24 25" fill="none" xmlns="http://www.w3.org/2000/svg">
<path d="M0.75 22.8614C2.92825 23.7045 5.41859 23.2519 7.125 21.7026C9.43878 23.8055 13.0612 23.8055 15.375 21.7026C17.5506 23.6796 20.9117 23.8132 23.25 22.0156" stroke="#757575" stroke-width="1.5" stroke-linecap="round" stroke-linejoin="round"/>
<path d="M17.25 18.9599V4.55993C17.25 2.96935 18.5931 1.67993 20.25 1.67993C21.9069 1.67993 23.25 2.96935 23.25 4.55993" stroke="#757575" stroke-width="1.5" stroke-linecap="round" stroke-linejoin="round"/>
<path d="M8.25 18.9599V4.55993C8.25 2.96935 9.59315 1.67993 11.25 1.67993C12.9069 1.67993 14.25 2.96935 14.25 4.55993" stroke="#757575" stroke-width="1.5" stroke-linecap="round" stroke-linejoin="round"/>
<path d="M8.25 11.76H17.25" stroke="#757575" stroke-width="1.5" stroke-linecap="round" stroke-linejoin="round"/>
<path d="M8.25 16.0798H17.25" stroke="#757575" stroke-width="1.5" stroke-linecap="round" stroke-linejoin="round"/>
<path d="M8.25 7.43994H17.25" stroke="#757575" stroke-width="1.5" stroke-linecap="round" stroke-linejoin="round"/>
</svg>
