<svg width="24" height="24" viewBox="0 0 24 24" fill="none" xmlns="http://www.w3.org/2000/svg">
<path fill-rule="evenodd" clip-rule="evenodd" d="M3 15.75C4.24264 15.75 5.25 14.0711 5.25 12C5.25 9.92893 4.24264 8.25 3 8.25C1.75736 8.25 0.75 9.92893 0.75 12C0.75 14.0711 1.75736 15.75 3 15.75Z" stroke="#757575" stroke-width="1.5" stroke-linecap="round" stroke-linejoin="round"/>
<path fill-rule="evenodd" clip-rule="evenodd" d="M8.25 8.25C9.49264 8.25 10.5 6.57107 10.5 4.5C10.5 2.42893 9.49264 0.75 8.25 0.75C7.00736 0.75 6 2.42893 6 4.5C6 6.57107 7.00736 8.25 8.25 8.25Z" stroke="#757575" stroke-width="1.5" stroke-linecap="round" stroke-linejoin="round"/>
<path fill-rule="evenodd" clip-rule="evenodd" d="M21 15C22.2426 15 23.25 13.3211 23.25 11.25C23.25 9.17893 22.2426 7.5 21 7.5C19.7574 7.5 18.75 9.17893 18.75 11.25C18.75 13.3211 19.7574 15 21 15Z" stroke="#757575" stroke-width="1.5" stroke-linecap="round" stroke-linejoin="round"/>
<path fill-rule="evenodd" clip-rule="evenodd" d="M15.75 8.25C16.9926 8.25 18 6.57107 18 4.5C18 2.42893 16.9926 0.75 15.75 0.75C14.5074 0.75 13.5 2.42893 13.5 4.5C13.5 6.57107 14.5074 8.25 15.75 8.25Z" stroke="#757575" stroke-width="1.5" stroke-linecap="round" stroke-linejoin="round"/>
<path fill-rule="evenodd" clip-rule="evenodd" d="M16.324 15.653C15.9389 15.3525 15.7234 14.8839 15.746 14.396C15.746 14.348 15.746 14.296 15.746 14.25C15.746 12.1789 14.0671 10.5 11.996 10.5C9.92493 10.5 8.246 12.1789 8.246 14.25C8.246 14.299 8.246 14.35 8.246 14.396C8.26961 14.8841 8.05393 15.3532 7.668 15.653C6.6592 16.3685 6.04228 17.5139 6 18.75C6 21.235 8.686 23.25 12 23.25C15.314 23.25 18 21.235 18 18.75C17.9559 17.5125 17.3358 16.3668 16.324 15.653Z" stroke="#757575" stroke-width="1.5" stroke-linecap="round" stroke-linejoin="round"/>
</svg>
