<svg width="24" height="24" viewBox="0 0 24 24" fill="none" xmlns="http://www.w3.org/2000/svg">
<path d="M15.82 12C15.82 15.2267 14.9298 18.1258 13.5165 20.2041C12.1015 22.2851 10.1987 23.5 8.16 23.5C6.12126 23.5 4.2185 22.2851 2.80347 20.2041C1.39024 18.1258 0.5 15.2267 0.5 12C0.5 8.77325 1.39024 5.87416 2.80347 3.79587C4.2185 1.71495 6.12126 0.5 8.16 0.5C10.1987 0.5 12.1015 1.71495 13.5165 3.79587C14.9298 5.87416 15.82 8.77325 15.82 12Z" stroke="#0F1A3A"/>
<line x1="10.1" y1="10.0601" x2="23.5" y2="10.0601" stroke="#0F1A3A" stroke-linecap="round"/>
<line x1="10.1" y1="14.86" x2="18.7" y2="14.86" stroke="#0F1A3A" stroke-linecap="round"/>
</svg>
