<svg width="20" height="25" viewBox="0 0 20 25" fill="none" xmlns="http://www.w3.org/2000/svg">
<path d="M1.11118 23.1538V5.99999C1.11118 3.23857 3.34975 1 6.11118 1H13.889C16.6504 1 18.889 3.23858 18.889 6V23.1538" stroke="#0F1A3A"/>
<rect width="0.456931" height="2.83403" rx="0.118" transform="matrix(-0.778854 0.627205 -0.38198 -0.924171 12.3329 6.11646)" fill="#0F1A3A"/>
<rect width="0.498851" height="2.9273" rx="0.118" transform="matrix(-0.582386 -0.812912 0.582386 -0.812912 7.45117 6.3208)" fill="#0F1A3A"/>
<rect x="10.1372" y="6.68262" width="0.410863" height="2.76923" rx="0.118" transform="rotate(-180 10.1372 6.68262)" fill="#0F1A3A"/>
<path d="M19.5 22.6922V22.6923C19.5 22.6958 19.5002 22.7382 19.4227 22.8256C19.3417 22.917 19.1992 23.0291 18.9747 23.1516C18.5262 23.3962 17.8441 23.6325 16.9586 23.8368C15.1956 24.2436 12.7351 24.4999 10 24.4999C7.26485 24.4999 4.80435 24.2436 3.04136 23.8368C2.15586 23.6325 1.47382 23.3962 1.02532 23.1516C0.800826 23.0291 0.658327 22.917 0.57727 22.8256C0.499831 22.7382 0.499987 22.6958 0.5 22.6923L0.5 22.6922L0.5 22.6921C0.499987 22.6886 0.499831 22.6462 0.57727 22.5589C0.658327 22.4675 0.800826 22.3554 1.02532 22.2329C1.47382 21.9882 2.15586 21.752 3.04136 21.5476C4.80435 21.1408 7.26485 20.8845 10 20.8845C12.7351 20.8845 15.1956 21.1408 16.9586 21.5476C17.8441 21.752 18.5262 21.9882 18.9747 22.2329C19.1992 22.3554 19.3417 22.4675 19.4227 22.5589C19.5002 22.6462 19.5 22.6886 19.5 22.6921V22.6922Z" stroke="#0F1A3A"/>
</svg>
