<svg width="24" height="25" viewBox="0 0 24 25" fill="none" xmlns="http://www.w3.org/2000/svg">
<path fill-rule="evenodd" clip-rule="evenodd" d="M9.75 7.43993C11.4069 7.43993 12.75 6.15051 12.75 4.55993C12.75 2.96935 11.4069 1.67993 9.75 1.67993C8.09315 1.67993 6.75 2.96935 6.75 4.55993C6.75 6.15051 8.09315 7.43993 9.75 7.43993Z" stroke="#757575" stroke-width="1.5" stroke-linecap="round" stroke-linejoin="round"/>
<path d="M9.75 7.43994V14.6399C9.75 15.4352 10.4216 16.0799 11.25 16.0799H15.75C17.4069 16.0799 18.75 17.3694 18.75 18.9599V23.2799H20.25" stroke="#757575" stroke-width="1.5" stroke-linecap="round" stroke-linejoin="round"/>
<path d="M15.75 11.76H9.75C6.43629 11.76 3.75 14.3388 3.75 17.52C3.75 20.7012 6.43629 23.28 9.75 23.28C13.0637 23.28 15.75 20.7012 15.75 17.52V16.08" stroke="#757575" stroke-width="1.5" stroke-linecap="round" stroke-linejoin="round"/>
</svg>
